# xmcd
#
# Track frame offsets:
#	150
#	1522
#	14767
#	28650
#	41187
#	53802
#	65565
#	84960
#	101867
#	118162
#	132880
#
# Disc length: 1998 seconds
#
# Revision: 1
# Processed by: cddbd v1.5.2PL0 Copyright (c) Steve Scherf et al.
# Submitted via: audiograbber 1.83.01
#
DISCID=8f07cc0b
DTITLE=Anna Ternheim - Separation road CD 2 Naked Versions II
DYEAR=2006
DGENRE=
TTITLE0=Intro
TTITLE1=Lovekeeper
TTITLE2=Girl laying down
TTITLE3=You mean noting to me now
TTITLE4=The Loneliness is gone
TTITLE5=Black widow
TTITLE6=Lovers dream
TTITLE7=Highlands
TTITLE8=Nights in Goodville
TTITLE9=Words of love
TTITLE10=Such a lonely soul
EXTD=
EXTT0=
EXTT1=
EXTT2=
EXTT3=
EXTT4=
EXTT5=
EXTT6=
EXTT7=
EXTT8=
EXTT9=
EXTT10=
PLAYORDER=
